<svg width="24" height="25" viewBox="0 0 24 25" fill="none" xmlns="http://www.w3.org/2000/svg">
<path opacity="0.987" fill-rule="evenodd" clip-rule="evenodd" d="M10.4287 0.106312C11.6974 -0.0354375 12.4482 -0.0354375 13.8114 0.106312C16.2246 0.463479 18.4616 1.57891 20.1989 3.29131C19.0249 4.40105 17.8663 5.52699 16.7234 6.66881C14.5348 4.81381 12.0918 4.38565 9.39442 5.38431C7.41576 6.29431 6.03792 7.76898 5.26092 9.80831C3.99119 8.86302 2.73801 7.8957 1.50192 6.90681C1.41602 6.8616 1.31791 6.84504 1.22192 6.85956C3.18542 3.07373 6.25376 0.822062 10.4269 0.104562" fill="#F44336"/>
<path opacity="0.997" fill-rule="evenodd" clip-rule="evenodd" d="M1.21844 6.85958C1.31761 6.84442 1.41152 6.86017 1.50019 6.90683C2.73627 7.89572 3.98946 8.86304 5.25919 9.80833C5.05939 10.6029 4.93343 11.4143 4.88294 12.2321C4.92611 13.0231 5.05152 13.7995 5.25919 14.5613L1.31294 17.7026C-0.405559 14.1116 -0.437059 10.4973 1.21844 6.85958Z" fill="#FFC107"/>
<path opacity="0.999" fill-rule="evenodd" clip-rule="evenodd" d="M20.0116 21.507C18.7829 20.4234 17.4965 19.4069 16.1581 18.4621C17.4998 17.5147 18.3141 16.215 18.6011 14.563H12.0264V9.9973C15.818 9.9658 19.608 9.99788 23.3961 10.0936C24.1148 13.996 23.2847 17.5147 20.9059 20.6495C20.623 20.9502 20.3234 21.2364 20.0116 21.507Z" fill="#448AFF"/>
<path opacity="0.993" fill-rule="evenodd" clip-rule="evenodd" d="M5.25924 14.563C6.69424 18.1295 9.32507 19.7944 13.1517 19.5575C14.2259 19.4332 15.2558 19.0579 16.1582 18.4621C17.4976 19.4094 18.7821 20.4244 20.0117 21.5071C18.0634 23.2578 15.5792 24.2967 12.9645 24.4541C12.3704 24.5015 11.7735 24.5015 11.1795 24.4541C6.72516 23.9291 3.43632 21.6786 1.31299 17.7026L5.25924 14.563Z" fill="#43A047"/>
</svg>
