<svg width="71" height="55" viewBox="0 0 71 55" fill="none" xmlns="http://www.w3.org/2000/svg">
<path d="M31.748 0H66C68.7614 0 71 2.23858 71 5V50C71 52.7614 68.7614 55 66 55H0L31.748 0Z" fill="#27005B"/>
<path d="M51.3978 28.1011C51.7298 27.7692 51.7298 27.231 51.3978 26.899L45.9884 21.4897C45.6565 21.1577 45.1183 21.1577 44.7864 21.4897C44.4544 21.8216 44.4544 22.3598 44.7864 22.6917L49.5947 27.5001L44.7864 32.3084C44.4544 32.6403 44.4544 33.1785 44.7864 33.5105C45.1183 33.8424 45.6565 33.8424 45.9884 33.5105L51.3978 28.1011ZM36.9431 27.5001L36.9431 28.3501L50.7968 28.3501L50.7968 27.5001L50.7968 26.6501L36.9431 26.6501L36.9431 27.5001Z" fill="white"/>
</svg>
